<?xml version="1.0" encoding="UTF-8" standalone="no"?>
<!DOCTYPE svg PUBLIC "-//W3C//DTD SVG 20010904//EN"
"http://www.w3.org/TR/2001/REC-SVG-20010904/DTD/svg10.dtd">
<!-- Created with Sodipodi ("http://www.sodipodi.com/") -->
<svg
   xmlns="http://www.w3.org/2000/svg"
   xmlns:xlink="http://www.w3.org/1999/xlink"
   version="1.0"
   x="0.0000000"
   y="0.0000000"
   width="80.000000"
   height="80.000000"
   id="svg1791"
   xmlns:sodipodi="http://sodipodi.sourceforge.net/DTD/sodipodi-0.dtd"
   sodipodi:version="0.34"
   sodipodi:docname="nabi.svg">
  <sodipodi:namedview
     id="base" />
  <defs
     id="defs1793" />
  <metadata
     id="metadata1794">
    <RDF
       id="RDF1795">
      <Work
         about=""
         id="Work1796">
        <format
           id="format1797">image/svg+xml</format>
        <type
           id="type1799"
           resource="http://purl.org/dc/dcmitype/StillImage" />
      </Work>
    </RDF>
  </metadata>
  <g
     id="g956">
    <path
       d="M 51.160043,3.8728869 C 49.553206,6.5363357 48.722880,8.5450370 49.764713,9.4804532 C 51.386888,9.8497202 49.584366,14.519649 50.432079,14.507237 C 52.164518,14.481862 52.824225,13.797779 52.951996,12.842712 C 53.079767,11.887643 52.187776,10.893721 51.792480,9.7844142 C 51.102665,7.8485857 52.948423,6.9907580 53.379477,7.0306285 C 54.605314,7.6086654 51.385296,15.590704 56.020528,9.7290242 C 58.170730,7.0098929 54.376558,15.767652 55.728326,17.218475 C 56.357603,17.245744 56.805397,18.498153 57.244257,17.488917 C 57.284299,11.737243 56.933805,8.1182622 55.495420,4.2729005 C 54.166927,1.3766585 51.941039,2.3717087 51.160043,3.8728869 z "
       style="font-size:12.000000;fill:#150c1d;"
       id="path1525" />
    <path
       d="M 13.673477,18.174854 C 12.461707,20.279808 13.757664,21.000795 14.092383,23.006606 C 14.770608,25.024364 15.962388,28.419337 16.616026,28.579059 C 17.404926,29.143886 16.491076,25.876674 17.339064,26.500535 C 18.056453,27.028422 18.606970,31.819516 20.634551,28.720378 C 22.697443,25.567192 18.855888,25.285296 16.865809,24.129500 C 16.616871,23.594022 18.763827,23.556316 18.313871,22.664880 C 17.558999,21.169495 15.303621,21.926077 16.240478,19.688489 C 17.109204,17.613602 19.549438,17.613512 17.690006,17.120202 C 15.886786,16.747105 14.706634,16.832829 13.673477,18.174854 z "
       style="font-size:12.000000;fill:#0b0205;"
       id="path1531" />
    <path
       d="M 46.036914,15.730423 C 45.874204,18.578351 48.364984,16.056894 47.783875,18.323677 C 47.332568,19.280389 46.356860,20.145360 48.106833,21.956947 C 48.966011,22.846278 49.127886,18.265963 50.505433,18.537894 C 51.987305,18.830391 53.381602,23.862563 54.437181,24.698561 C 55.692448,25.692200 55.607948,23.739732 56.247149,24.643618 C 56.351956,24.791825 57.354425,28.320300 58.034221,28.003961 C 59.487605,27.764506 58.308006,26.485243 58.379286,26.104020 C 58.696519,24.405642 58.325263,22.296147 55.066941,21.731677 L 54.043933,22.336035 C 52.148044,19.965159 56.660505,21.887646 57.783584,20.875226 C 58.528540,20.203737 56.612345,17.636746 55.677135,17.446198 C 54.498416,18.732117 51.324028,17.308493 50.584271,17.067084 C 49.488546,16.709807 48.818193,15.097479 49.307399,13.665170 C 50.030697,12.074610 49.169909,9.1898072 48.285587,10.226097 C 46.576845,12.601664 46.121079,14.411116 46.036914,15.730423 z "
       style="font-size:12.000000;fill:#12010b;"
       id="path1534" />
    <path
       d="M 4.1580491,16.187123 L 4.3259855,17.362262 L 4.1580491,16.187123 z "
       style="font-size:12.000000;fill:#c2b6c0;"
       id="path1538" />
    <path
       d="M 19.855403,17.570456 C 16.435107,17.114145 17.833071,19.740710 21.053641,21.229994 C 21.692218,21.525270 22.371085,20.914267 22.456815,21.052119 C 23.199889,22.246589 17.470975,23.354272 20.613766,24.412879 C 23.987655,25.549392 25.591362,24.839263 27.489524,22.700167 C 27.776898,22.376303 29.273105,22.413307 29.131490,21.990318 C 28.431467,19.899701 22.156980,17.816881 19.855403,17.570456 z "
       style="font-size:12.000000;fill:#0b0008;"
       id="path1539" />
    <path
       d="M 52.391898,14.055680 L 52.701118,14.496366 L 52.391898,14.055680 z "
       style="font-size:12.000000;fill:#77796e;"
       id="path1546" />
    <path
       d="M 24.866596,28.263773 C 23.970610,28.499764 23.734389,29.059214 22.860188,29.291256 C 21.974153,29.526446 22.713758,30.199187 21.766679,30.320988 C 21.219012,30.391418 20.552502,29.928762 19.652943,30.101514 C 16.326641,30.776084 18.070661,31.351264 18.956229,31.744422 C 18.724435,32.916809 20.170348,33.044007 21.913972,31.952385 C 25.222039,30.585970 27.106454,31.571447 27.149705,30.462916 C 27.704149,30.144308 23.674597,30.245466 23.952911,30.176900 C 26.323874,29.592722 28.326772,28.689489 26.237585,28.002372 C 25.978630,27.917208 25.255413,28.161356 24.866596,28.263773 z "
       style="font-size:12.000000;fill:#0f0007;"
       id="path1550" />
    <path
       d="M 23.721986,25.342616 C 22.248732,25.880671 24.029928,27.695719 25.265056,27.287729 C 26.739485,26.800688 24.955738,24.891996 23.721986,25.342616 z "
       style="font-size:12.000000;fill:#778a52;"
       id="path1554" />
    <path
       d="M 46.746811,28.051627 C 45.100723,29.645338 48.069029,34.145472 49.852210,32.583662 C 52.608879,30.169800 49.488760,25.397147 46.746811,28.051627 z "
       style="font-size:12.000000;fill:#be4e20;"
       id="path1524" />
    <path
       d="M 46.154243,20.566324 C 47.418170,18.308562 45.602851,17.671624 45.299691,19.171623 C 43.955567,19.890359 39.268218,32.937660 40.105324,33.271103 C 41.596741,35.563866 42.294931,31.883076 42.218477,30.964760 C 42.367166,30.301991 41.730507,28.886419 42.524211,29.773455 C 43.282651,30.839717 45.539732,35.970764 47.462753,33.448367 C 49.210077,32.715832 49.114156,40.788834 50.023435,40.543594 C 51.479766,40.150664 52.619248,36.287238 51.876641,35.431434 C 51.202027,34.653882 50.539510,37.548488 49.703791,37.134797 C 48.637155,36.606616 50.172630,34.617523 50.092087,33.869994 C 49.974295,32.779339 47.643150,33.099164 47.257655,32.645679 C 46.182171,31.380213 42.986655,27.683596 45.465264,25.639182 C 46.918331,24.544391 49.550761,29.356801 50.840422,28.309580 C 51.741316,27.578147 47.816959,23.933782 47.426327,22.911205 C 47.228000,22.392493 46.142477,21.869063 46.154243,20.566324 z "
       style="font-size:12.000000;fill:#0e0005;"
       id="path1556" />
    <path
       d="M 51.410541,20.081994 C 51.277812,20.046135 51.078303,20.890830 50.671645,20.930588 C 48.017157,21.190297 49.978102,27.022315 51.947606,27.553650 C 52.965768,27.553650 52.957169,20.498043 51.410541,20.081994 z "
       style="font-size:12.000000;fill:#eb7b19;"
       id="path1557" />
    <path
       d="M 29.241470,22.438630 C 28.678131,24.057653 26.178537,24.979707 26.739045,25.639007 C 27.280753,26.276175 28.646230,28.134890 28.720964,26.160264 C 29.472035,27.086061 31.290464,27.779160 32.295848,28.446428 C 35.199203,29.761616 36.612066,29.324192 38.421118,31.189958 C 39.455675,32.256907 39.814726,33.439755 41.574787,33.111454 C 43.430501,31.908654 39.984016,30.417760 39.535117,29.822030 C 38.523666,28.930866 37.754251,28.103323 35.296871,26.803304 C 33.949957,26.090723 31.130655,26.262468 29.921266,25.139051 C 30.187649,25.386500 32.158636,25.499684 32.343613,25.110100 C 32.885110,23.969723 29.956206,22.532874 29.241470,22.438630 z "
       style="font-size:12.000000;fill:#0e010a;"
       id="path1561" />
    <path
       d="M 20.480288,27.484504 C 19.240891,28.525002 21.713296,29.976744 22.845805,29.000839 C 24.207109,27.827801 21.550072,26.586387 20.480288,27.484504 z "
       style="font-size:12.000000;fill:#7d804b;"
       id="path1563" />
    <path
       d="M 24.336948,26.220448 L 25.667637,26.456905 L 24.336948,26.220448 z "
       style="font-size:12.000000;fill:#353327;"
       id="path1564" />
    <path
       d="M 54.142516,24.656711 L 54.399437,32.099414 L 54.142516,24.656711 z "
       style="font-size:12.000000;fill:#e48124;"
       id="path1569" />
    <path
       d="M 28.825948,29.287106 C 25.888076,31.254120 35.566331,33.244005 36.467442,32.359409 C 38.744896,30.625749 30.463010,28.190978 28.825948,29.287106 z "
       style="font-size:12.000000;fill:#4b170a;"
       id="path1572" />
    <path
       d="M 57.766222,28.704358 C 56.682126,28.518028 56.270606,32.983124 56.321278,33.445983 C 56.716575,37.047464 59.666985,45.508071 56.909154,48.429394 C 55.041084,50.407642 53.201973,46.987202 52.329848,45.037601 C 51.942144,44.376952 51.738627,42.672581 51.166738,43.055653 C 49.191572,44.010659 52.967205,50.438931 54.338185,50.853181 C 54.747133,50.977019 54.752427,49.878376 55.293149,49.751457 C 55.691536,49.658030 59.423732,48.814999 59.112593,49.457524 C 60.922948,45.718716 59.789278,37.080606 59.627988,33.207304 C 59.580388,32.064031 59.148658,28.941885 57.766222,28.704358 z "
       style="font-size:12.000000;fill:#070002;"
       id="path1573" />
    <path
       d="M 45.889148,40.356291 C 45.078295,42.929164 43.024729,43.475004 43.404859,44.624720 C 43.784983,45.774444 45.228727,44.925655 46.006083,45.263708 C 47.319015,45.813318 46.164204,43.931202 46.298309,42.126035 C 46.672748,40.021299 49.048832,40.665082 45.889148,40.356291 z "
       style="font-size:12.000000;fill:#090305;"
       id="path1574" />
    <path
       d="M 28.108445,33.701328 C 24.849827,34.848561 35.842508,39.529103 37.700250,38.779204 L 39.966529,37.625901 C 41.303622,37.455746 30.848032,33.122575 28.108445,33.701328 z "
       style="font-size:12.000000;fill:#cc721c;"
       id="path1576" />
    <path
       d="M 26.115927,37.233916 C 24.334124,37.280533 24.980415,38.349899 26.065628,38.946743 C 27.283167,39.616343 30.558673,40.933240 32.154839,40.912019 C 32.981689,40.901034 36.047847,40.233736 35.194808,39.559412 C 34.062857,38.664600 27.870719,37.188023 26.115927,37.233916 z "
       style="font-size:12.000000;fill:#a76119;"
       id="path1579" />
    <path
       d="M 19.106858,33.429739 C 17.477297,34.377266 19.497033,38.366676 19.751922,39.437464 C 20.597648,42.989883 23.065454,43.994416 27.181430,42.945353 C 28.160556,42.695922 32.896240,43.993887 33.716461,43.288286 C 34.402980,42.697459 27.929321,40.938770 27.611476,40.873722 C 24.583159,40.257123 24.350115,40.413369 24.173754,38.155872 C 24.139951,37.723140 22.975615,36.241769 23.241979,35.808013 C 24.395615,33.929340 35.093239,39.643116 36.674331,39.863367 C 37.116332,39.924938 38.021211,40.511197 38.363941,40.239274 C 39.383221,39.430553 36.256852,38.736070 35.814248,38.620401 C 33.720848,38.073317 20.904569,32.384438 19.106858,33.429739 z "
       style="font-size:12.000000;fill:#311b00;"
       id="path1580" />
    <path
       d="M 29.827140,36.436881 L 31.442971,36.583805 L 29.827140,36.436881 z "
       style="font-size:12.000000;fill:#67351a;"
       id="path1581" />
    <path
       d="M 42.714627,33.648747 C 40.679570,34.217918 45.493575,36.614470 47.699562,36.353884 C 49.299057,36.165031 44.471505,33.194758 42.714627,33.648747 z "
       style="font-size:12.000000;fill:#756237;"
       id="path1582" />
    <path
       d="M 40.722026,32.870987 C 40.395190,32.827790 39.552223,32.972209 39.447732,33.260140 C 39.252379,33.798421 38.617396,33.837569 39.199554,35.050790 C 39.902778,37.932509 43.103842,37.156083 43.318849,38.545272 C 42.056716,37.579380 30.956694,43.922983 35.141835,45.274998 C 36.350561,45.393070 33.131155,54.541057 34.470120,53.052845 C 35.539783,52.592206 35.413273,52.685237 37.429977,45.523972 C 38.145745,42.982301 38.961402,40.921651 39.964717,40.573986 C 43.325011,38.738709 45.919796,39.504933 45.651077,38.653657 C 44.926267,36.357522 41.841024,36.112423 40.920501,34.674629 C 41.147682,34.053501 42.407439,33.093573 40.722026,32.870987 z "
       style="font-size:12.000000;fill:#080006;"
       id="path1583" />
    <path
       d="M 53.033544,40.447682 C 50.198666,41.795275 54.446744,48.869193 56.447260,47.464317 C 57.904066,46.441490 54.150057,39.916591 53.033544,40.447682 z "
       style="font-size:12.000000;fill:#8f5f37;"
       id="path1585" />
    <path
       d="M 41.683632,40.701265 C 38.682814,41.804184 38.632371,45.423989 42.228795,43.912300 C 44.428380,42.987474 43.609281,39.993502 41.683632,40.701265 z "
       style="font-size:12.000000;fill:#ffc756;"
       id="path1587" />
    <path
       d="M 44.017042,63.678553 C 43.659240,64.034714 41.587892,64.166965 42.473698,64.543650 C 43.988656,65.187879 43.996531,64.739238 45.061476,64.468702 C 47.173929,63.970515 51.137390,60.794746 52.471304,59.352026 C 53.138262,58.630667 53.147834,58.342569 51.939951,59.039061 C 50.732068,59.735555 47.785772,62.458550 44.017042,63.678553 z "
       style="font-size:12.000000;fill:#bfa455;"
       id="path1598" />
    <path
       d="M 41.023671,44.951236 C 40.168834,45.721971 41.823892,46.020926 41.873989,47.273810 C 41.916433,48.334983 40.058463,49.620570 40.530083,50.853181 C 40.686397,51.261699 45.968355,50.310695 45.010438,53.130216 C 44.342616,55.095690 36.704597,54.624024 37.992994,58.771788 C 38.220166,59.503333 40.003432,57.285823 40.390009,57.049165 C 43.217864,55.319463 47.188890,54.238552 49.123505,52.983035 C 49.511322,52.731391 51.228250,53.759967 51.473714,53.130216 C 51.382043,53.365541 46.149356,51.134780 45.598012,50.632843 C 44.932083,50.026445 43.541444,48.980248 43.541444,47.988702 C 43.541444,47.380556 45.208172,46.497413 44.863514,46.005599 C 44.588785,45.613402 41.527604,44.622924 41.023671,44.951236 z "
       style="font-size:12.000000;fill:#0e0000;"
       id="path1599" />
    <path
       d="M 45.445847,46.775095 C 40.067734,49.281481 52.185789,53.718919 53.321624,52.930442 C 55.428453,51.466810 48.460408,45.370159 45.445847,46.775095 z "
       style="font-size:12.000000;fill:#f1bf60;"
       id="path1603" />
    <path
       d="M 59.406095,47.841950 C 59.369962,47.824330 59.349710,49.298859 59.139063,49.223947 C 57.142740,48.510917 58.767979,49.316945 57.422995,50.779586 C 57.687860,50.491816 55.221776,50.572547 54.792539,50.666413 C 54.561184,50.716655 54.302050,52.636646 53.897492,53.056630 C 53.087944,53.897457 49.792033,52.237382 48.976762,52.983035 C 48.606583,53.321478 53.530403,54.510450 53.530403,55.480408 C 53.530403,56.832003 46.319718,59.683701 47.948203,60.548336 C 49.775291,61.518278 52.065549,57.764053 53.677154,57.683857 C 53.718126,57.681653 53.577555,59.139010 53.971087,58.859168 C 54.737880,58.313160 55.168872,57.281510 56.174536,56.949231 C 57.180190,56.617389 58.144847,57.413715 59.039007,56.655728 L 60.801762,52.909879 C 60.987291,52.604928 59.741019,51.841655 59.626451,51.514212 C 59.341324,50.697177 60.302021,48.270748 59.406095,47.841950 z "
       style="font-size:12.000000;fill:#0d020a;"
       id="path1607" />
    <path
       d="M 26.546553,47.442723 C 23.427274,51.343001 32.571177,48.838720 34.408764,46.654792 C 36.332823,44.856156 28.197571,45.377943 26.546553,47.442723 z "
       style="font-size:12.000000;fill:#ea9c20;"
       id="path1608" />
    <path
       d="M 38.522585,46.938491 C 36.408419,48.625055 36.668834,52.508795 39.506606,50.225612 C 41.605384,48.537282 41.276319,44.741029 38.522585,46.938491 z "
       style="font-size:12.000000;fill:#f9ba39;"
       id="path1613" />
    <path
       d="M 33.739592,57.565685 C 32.105151,57.727147 28.851936,59.504326 33.162456,61.193914 C 37.113399,63.322187 36.498370,56.961490 33.739592,57.565685 z "
       style="font-size:12.000000;fill:#a04405;"
       id="path1644" />
    <path
       d="M 29.622491,42.762990 C 24.437227,43.427740 22.675764,49.099441 23.235509,50.826738 C 24.415331,55.947017 25.547960,57.317908 27.576920,59.531927 C 28.461460,60.497478 28.650655,56.787657 30.041201,57.496719 C 31.746631,61.305595 29.727364,55.460137 34.260008,57.524763 C 34.910438,57.820906 35.934984,60.722119 35.929844,61.208200 C 35.951635,62.946957 32.375785,61.101059 30.981359,61.761800 C 28.237783,62.504571 33.979568,64.064591 34.989737,63.692775 C 37.195294,62.380367 37.647904,63.234234 37.400507,62.072127 C 35.957780,59.781870 35.543045,58.219495 35.552800,54.876965 C 35.761452,52.495453 35.294563,52.930407 34.608506,53.778439 C 33.784291,54.797248 33.665405,55.855496 31.754720,55.787059 C 20.705553,56.421459 32.415972,51.734494 31.195875,50.325359 C 30.143084,49.963056 27.433757,52.081710 25.982466,51.188071 C 21.295504,46.780701 34.208330,44.604460 29.622491,42.762990 z "
       style="font-size:12.000000;fill:#11040d;"
       id="path1618" />
    <path
       d="M 60.946749,51.491737 L 60.883285,52.418065 L 60.946749,51.491737 z "
       style="font-size:12.000000;fill:#56888f;"
       id="path1623" />
    <path
       d="M 42.969351,51.484771 C 41.460120,50.945179 34.192227,53.781833 36.736497,55.071564 C 38.938609,56.186618 46.235973,52.652218 42.969351,51.484771 z "
       style="font-size:12.000000;fill:#e2a743;"
       id="path1633" />
    <path
       d="M 34.265783,50.982607 C 33.505456,49.903030 27.507025,51.618726 29.216824,54.558559 C 30.590932,56.920992 35.178190,52.035241 34.265783,50.982607 z "
       style="font-size:12.000000;fill:#f29e2a;"
       id="path1643" />
    <path
       d="M 47.242859,54.301646 C 45.177925,55.059521 36.101524,60.891912 39.364958,60.638822 C 40.916981,60.518496 48.137640,58.330299 49.523132,57.192094 C 52.209760,54.984144 50.972225,52.933171 47.242859,54.301646 z "
       style="font-size:12.000000;fill:#f0b147;"
       id="path1645" />
    <path
       d="M 53.224556,59.493326 C 50.587481,60.764276 48.532909,63.053800 45.912129,64.875165 C 45.636831,65.066426 41.938041,68.304261 45.566519,67.426433 C 48.022964,67.714203 50.474231,63.716003 52.147080,62.082362 C 52.385932,61.849689 54.162348,59.041615 53.224556,59.493326 z "
       style="font-size:12.000000;fill:#211006;"
       id="path1647" />
    <path
       d="M 26.211186,57.832759 C 28.241506,60.652734 26.303114,65.391338 18.647448,67.620363 C 14.611636,68.574156 6.3715255,75.936935 16.966383,74.064361 C 22.035212,73.179011 20.441362,67.579637 29.836200,61.187245 C 31.648676,59.976927 30.932032,59.732220 30.474623,58.841908 C 29.659463,55.988479 29.304933,61.045428 28.736766,57.137848 C 28.552111,55.867888 24.749715,55.596224 26.211186,57.832759 z M 18.584670,70.362149 C 21.699134,70.362426 18.637249,73.784927 14.371486,73.257881 C 12.621191,72.934082 15.114651,70.320345 18.584670,70.362149 z "
       style="font-size:12.000000;fill:#0f0007;"
       id="path1649" />
    <path
       d="M 53.544906,27.550447 C 53.432181,27.492846 54.192501,31.056661 53.915275,31.180025 C 52.105711,31.985828 55.380164,43.858763 57.485933,43.547211 C 58.225414,43.437808 54.857827,28.218133 53.544906,27.550447 z "
       style="font-size:12.000000;fill:#eb7b19;"
       id="path1650" />
    <path
       d="M 60.364917,50.362951 C 59.331942,50.669236 59.308580,53.153844 61.025948,52.713143 C 62.342277,52.375577 62.128111,49.840305 60.364917,50.362951 z "
       style="font-size:12.000000;fill:#0a0a0a;"
       id="path1651" />
    <path
       d="M 54.291437,13.943755 C 53.162547,15.158403 53.557637,17.875271 54.602396,16.728761 C 55.858222,15.350629 55.265846,12.895304 54.291437,13.943755 z "
       style="font-size:12.000000;fill:#7d804b;"
       id="path1652" />
    <path
       d="M 51.759642,15.507064 C 51.238820,16.628148 52.383066,17.911251 52.858207,16.861792 C 53.429349,15.600319 52.209183,14.539412 51.759642,15.507064 z "
       style="font-size:12.000000;fill:#7d804b;"
       id="path1653" />
    <path
       d="M 75.394819,43.343064 L 74.098795,43.419620 L 67.443569,46.748110 L 60.999350,51.659122 L 67.933326,46.920839 L 75.394819,43.343064 z "
       style="font-size:12.000000;"
       id="path1654" />
    <path
       d="M 35.009584,57.973745 C 33.885892,60.421959 37.922539,63.756271 29.762556,67.791395 C 19.413752,71.850926 15.173877,78.987551 26.081514,75.615487 C 29.308727,74.566856 29.262622,71.624535 30.652366,70.002327 C 32.771134,66.870919 34.697972,64.577117 37.340074,63.876859 C 43.800057,64.038762 39.816179,63.216743 38.036703,62.672139 C 36.628405,62.241133 35.329803,57.285375 35.009584,57.973745 z M 27.791195,71.264635 C 29.759898,71.332584 26.318465,75.883314 23.682747,75.101711 C 20.757705,74.343897 23.611950,71.459259 27.791195,71.264635 z "
       style="font-size:12.000000;fill:#0f0007;"
       id="path1655" />
    <path
       d="M 22.318878,34.198255 C 19.487620,32.788789 18.906187,36.985081 20.576354,39.578691 C 22.306101,41.962502 25.163679,42.417988 25.582236,42.087316 C 26.617899,42.189973 23.278304,37.353095 22.982932,36.902259 C 22.477811,34.365596 26.231207,35.062907 22.318878,34.198255 z "
       style="font-size:12.000000;fill:#0b0109;"
       id="path1578" />
    <path
       d="M 48.643604,41.547287 C 47.948216,40.907403 47.426359,41.901594 47.404343,42.729960 C 47.379654,43.659322 47.658497,45.819638 48.266800,46.407265 C 48.581910,46.711675 50.196902,47.400926 50.360415,46.605842 C 50.577397,45.550788 49.328438,42.177484 48.643604,41.547287 z "
       style="font-size:12.000000;fill:#a76119;"
       id="path1851" />
  </g>
</svg>
